<svg width="63" height="63" viewBox="0 0 63 63" fill="none" xmlns="http://www.w3.org/2000/svg"><g clip-path="url(#a)" fill="#4D9B35"><path d="m63 31.5-7.132-7.918 1.117-10.6-10.429-2.209-5.32-9.24-9.736 4.35-9.736-4.35-5.32 9.24-10.429 2.208 1.117 10.6L0 31.5l7.132 7.918-1.117 10.6 10.429 2.209 5.32 9.24 9.736-4.35 9.736 4.35 5.32-9.24 10.429-2.208-1.117-10.6L63 31.5zM31.5 53.068l-8.198 3.664-4.478-7.78-8.784-1.859.94-8.925L4.974 31.5l6.006-6.668-.94-8.925 8.784-1.86 4.478-7.779L31.5 9.932l8.198-3.664 4.478 7.78 8.784 1.86-.94 8.924 6.006 6.668-6.006 6.668.94 8.925-8.784 1.86-4.478 7.779-8.198-3.664z"/><path d="M41.948 22.142 28.741 36.938l-8.221-8.221-2.614 2.613 10.988 10.988 15.812-17.715-2.758-2.461z"/></g><defs><clipPath id="a"><path fill="#fff" d="M0 0h63v63H0z"/></clipPath></defs></svg>