<svg width="73" height="71" viewBox="0 0 73 71" fill="none" xmlns="http://www.w3.org/2000/svg"><path d="M68.388 20.488a2.418 2.418 0 0 0-1.161-1.473l-2.098-1.178a2.54 2.54 0 0 0-1.893-.242 2.469 2.469 0 0 0-1.515 1.13l-1.252 2.109a2.54 2.54 0 0 0-1.702-.147 2.471 2.471 0 0 0-1.514 1.13l-.08.133v-8.984c0-2.868-2.397-5.2-5.346-5.2h-7.799c-.174-1.174-1.212-2.08-2.466-2.08h-3.636V3.12c0-1.72-1.44-3.12-3.208-3.12h-7.842c-1.769 0-3.208 1.4-3.208 3.12v2.566h-3.636c-1.254 0-2.293.906-2.466 2.08h-7.8c-2.948 0-5.346 2.332-5.346 5.2V65.8c0 2.868 2.398 5.2 5.347 5.2h33.37c.59 0 1.069-.465 1.069-1.04s-.48-1.04-1.07-1.04H9.767c-1.768 0-3.207-1.4-3.207-3.12V12.966c0-1.72 1.439-3.12 3.208-3.12h7.77v5.061c0 1.338 1.12 2.427 2.495 2.427h21.53c1.375 0 2.495-1.089 2.495-2.427v-.97h6.772v18.702l-10.88 18.33a3.71 3.71 0 0 0-.516 2.178l.477 6.497c.041.568.368 1.08.872 1.369a1.822 1.822 0 0 0 1.655.079l6.147-2.773a3.862 3.862 0 0 0 1.745-1.552l.5-.841v8.903H10.765V13.937h2.851c.59 0 1.07-.466 1.07-1.04 0-.575-.48-1.04-1.07-1.04h-3.208c-.983 0-1.782.777-1.782 1.733v51.586c0 .956.8 1.733 1.782 1.733h40.778c.982 0 1.782-.777 1.782-1.733V52.323l2.067-3.483V65.8c0 1.72-1.439 3.12-3.208 3.12h-3.7c-.591 0-1.07.465-1.07 1.04 0 .574.479 1.04 1.07 1.04h3.7c2.948 0 5.347-2.333 5.347-5.2V45.237l9.021-15.197 1.426-2.401a2.351 2.351 0 0 0 .248-1.84 2.408 2.408 0 0 0-.981-1.36l1.251-2.11a2.352 2.352 0 0 0 .25-1.84zm-4.815-.723a.362.362 0 0 1 .486-.127l2.098 1.178a.338.338 0 0 1 .13.473l-1.246 2.1-2.714-1.523 1.246-2.1zm-4.468 3.093a.353.353 0 0 1 .216-.161.358.358 0 0 1 .27.034l6.047 3.396a.343.343 0 0 1 .13.472l-.89 1.5-6.663-3.741.89-1.5zM25.807 3.12c0-.574.48-1.04 1.069-1.04h7.842c.59 0 1.07.466 1.07 1.04v2.566h-9.981V3.12zm16.111 11.787c0 .191-.16.347-.356.347h-21.53a.352.352 0 0 1-.356-.347V8.112c0-.19.16-.346.356-.346h21.53c.196 0 .356.155.356.346v6.795zm9.268-3.05h-7.13V9.845h7.771c1.769 0 3.208 1.4 3.208 3.12v12.588l-2.067 3.482V13.59c0-.956-.8-1.734-1.782-1.734zm5.96 14.302 6.662 3.742-13.11 22.084-6.663-3.741 13.11-22.085zm-8.668 29.568c-.185.31-.46.554-.793.705l-5.679 2.561-.44-5.994a1.684 1.684 0 0 1 .234-.99l1.166-1.964 6.663 3.741-1.151 1.941z" fill="#4D9B35"/><path d="M15.465 58.025c.204.177.457.263.71.263.295 0 .588-.118.8-.35l2.12-2.322 1.641 1.905a1.816 1.816 0 0 0 2.677.061l1.974-2.085 2.187 2.409a1.09 1.09 0 0 0 1.51.09 1.02 1.02 0 0 0 .093-1.467l-2.45-2.697a1.806 1.806 0 0 0-1.316-.585h-.019c-.497 0-.974.202-1.31.558l-1.967 2.077-1.647-1.91a1.803 1.803 0 0 0-1.34-.62 1.787 1.787 0 0 0-1.358.583l-2.394 2.622a1.02 1.02 0 0 0 .09 1.468zm31.55-35.075c0-.575-.479-1.04-1.07-1.04H15.578c-.59 0-1.07.465-1.07 1.04s.48 1.04 1.07 1.04h30.369c.59 0 1.07-.465 1.07-1.04zM15.72 29.537h12.689c.59 0 1.069-.465 1.069-1.04s-.479-1.04-1.07-1.04H15.72c-.59 0-1.07.465-1.07 1.04s.48 1.04 1.07 1.04zm23.739-1.04c0-.575-.48-1.04-1.07-1.04H33.4c-.59 0-1.07.465-1.07 1.04s.48 1.04 1.07 1.04h4.99c.59 0 1.07-.465 1.07-1.04zM15.72 35.084h10.265c.59 0 1.07-.465 1.07-1.04s-.48-1.04-1.07-1.04H15.719c-.59 0-1.07.465-1.07 1.04s.48 1.04 1.07 1.04zm19.675-2.08h-4.848c-.59 0-1.069.465-1.069 1.04s.479 1.04 1.07 1.04h4.847c.59 0 1.07-.465 1.07-1.04s-.48-1.04-1.07-1.04zM15.72 40.63h7.413c.59 0 1.07-.464 1.07-1.04 0-.574-.48-1.04-1.07-1.04H15.72c-.59 0-1.07.466-1.07 1.04 0 .576.48 1.04 1.07 1.04zm20.744-1.04c0-.574-.479-1.04-1.069-1.04h-7.7c-.59 0-1.069.466-1.069 1.04 0 .576.48 1.04 1.07 1.04h7.699c.59 0 1.07-.464 1.07-1.04zM15.72 46.178h7.413c.59 0 1.07-.466 1.07-1.04 0-.575-.48-1.04-1.07-1.04H15.72c-.59 0-1.07.465-1.07 1.04 0 .574.48 1.04 1.07 1.04z" fill="#4D9B35"/></svg>