<svg width="73" height="73" viewBox="0 0 73 73" fill="none" xmlns="http://www.w3.org/2000/svg"><path d="M59.228 44.688a6.428 6.428 0 0 0-11.551-5.639l-5.8 11.88a6.426 6.426 0 1 0 11.552 5.639l5.8-11.88zM49.214 39.8a4.718 4.718 0 0 1 7.776-1.059 4.717 4.717 0 0 1 .701 5.197l-2.524 5.171-8.477-4.138 2.524-5.171zm2.678 16.017a4.721 4.721 0 0 1-6.308 2.17 4.717 4.717 0 0 1-2.169-6.308l2.525-5.17 8.476 4.138-2.524 5.17z" fill="#4D9B35"/><path d="M52.28 38.168a4.765 4.765 0 0 0-2.75 2.431l-1.064 2.179a.855.855 0 1 0 1.538.751l1.063-2.178a3.065 3.065 0 0 1 1.769-1.564.856.856 0 1 0-.556-1.618zm15.612 6.092a6.427 6.427 0 0 0-8.596 2.957l-5.8 11.88a6.427 6.427 0 0 0 11.552 5.639l5.8-11.88a6.426 6.426 0 0 0-2.956-8.595zM63.51 63.986a4.716 4.716 0 1 1-8.477-4.138l2.524-5.171 8.477 4.137-2.524 5.172zm5.8-11.88-2.524 5.172-8.478-4.138 2.524-5.171a4.716 4.716 0 1 1 8.477 4.138z" fill="#4D9B35"/><path d="M63.899 46.336a4.766 4.766 0 0 0-2.75 2.431l-1.064 2.178a.856.856 0 1 0 1.537.75l1.064-2.177a3.064 3.064 0 0 1 1.769-1.564.855.855 0 1 0-.556-1.618zM32.068 19.169a3.542 3.542 0 0 0 3.15-3.516V7.316a3.54 3.54 0 0 0-3.537-3.536H7.343a3.54 3.54 0 0 0-3.536 3.536v8.337a3.54 3.54 0 0 0 3.536 3.537h.503a16.115 16.115 0 0 0-2.169 1.623c-2.584 2.3-4.107 5.119-4.177 7.735v35.924c0 2.353 2.324 4.748 4.604 4.748h27.394c1.12 0 2.167-.569 2.951-1.601a5.32 5.32 0 0 0 1.076-3.147V28.571c0-3.647-2.536-7.332-5.457-9.402zM30.46 5.49h1.22a1.828 1.828 0 0 1 1.827 1.826v8.337a1.827 1.827 0 0 1-1.826 1.826h-1.22V5.49zm-5.046 0h3.335v11.99h-3.335V5.49zm-5.19 0h3.48v11.99h-3.48V5.49zm-4.902 0h3.191v11.99h-3.192l.001-11.99zm-5.19 0h3.48v11.99h-3.48V5.49zm-2.79 11.99a1.828 1.828 0 0 1-1.824-1.827V7.316A1.828 1.828 0 0 1 7.343 5.49H8.42v11.99H7.343zm28.472 38.463H12.052V34.009h23.762v21.934zm0-23.645H11.196a.855.855 0 0 0-.855.855v23.645a.855.855 0 0 0 .855.856h24.618v6.818c0 1.376-1.033 3.037-2.316 3.037H6.104c-1.325 0-2.894-1.647-2.894-3.037V28.583c.063-2.143 1.376-4.509 3.605-6.491 1.951-1.736 4.337-2.902 5.937-2.902H27.6c3.017 0 8.214 4.636 8.214 9.382v3.726z" fill="#4D9B35"/><path d="M16.864 48.283H21.2v4.334a1.145 1.145 0 0 0 1.144 1.144h3.605a1.145 1.145 0 0 0 1.143-1.144v-4.334h4.335a1.146 1.146 0 0 0 1.144-1.144v-3.605a1.145 1.145 0 0 0-1.144-1.144H27.09v-4.334a1.145 1.145 0 0 0-1.143-1.144h-3.605a1.145 1.145 0 0 0-1.144 1.144v4.334h-4.334a1.144 1.144 0 0 0-1.144 1.144v3.605a1.145 1.145 0 0 0 1.143 1.144zm.567-4.182h4.335a1.145 1.145 0 0 0 1.144-1.143v-4.335h2.47v4.335a1.145 1.145 0 0 0 1.144 1.143h4.335v2.47h-4.335a1.145 1.145 0 0 0-1.143 1.144v4.335h-2.47v-4.335a1.145 1.145 0 0 0-1.145-1.143h-4.334v-2.47zM6.645 35.654a.856.856 0 0 0-.856.855v20.58a.855.855 0 1 0 1.711 0V36.51a.856.856 0 0 0-.855-.855zm-.086-1.114a.855.855 0 0 0 .855-.855v-.612a.855.855 0 1 0-1.71 0v.611a.855.855 0 0 0 .855.856z" fill="#4D9B35"/></svg>