<svg width="56" height="70" viewBox="0 0 56 70" fill="none" xmlns="http://www.w3.org/2000/svg"><path d="M51.238 3.917h-5.07c-.562 0-1.018.453-1.018 1.01 0 .558.456 1.01 1.018 1.01h.629v55.757H8.801V5.937h4.236V8.23c0 1.758 1.442 3.188 3.214 3.188h4.812c.481 2.635 2.81 4.64 5.602 4.64h2.268c2.79 0 5.12-2.005 5.602-4.64h4.811c1.773 0 3.215-1.43 3.215-3.188V3.873c0-1.758-1.442-3.189-3.214-3.189H16.25c-1.772 0-3.214 1.43-3.214 3.189v.044H4.36C2.12 3.917.3 5.724.3 7.944V48.48c0 .558.456 1.01 1.018 1.01s1.018-.452 1.018-1.01V7.944c0-1.106.909-2.007 2.024-2.007h2.405v56.766c0 .558.456 1.01 1.018 1.01h40.032c.562 0 1.017-.452 1.017-1.01V5.937h2.406c1.116 0 2.023.9 2.023 2.007V65.59a2.018 2.018 0 0 1-2.023 2.008H4.36c-1.115 0-2.024-.9-2.024-2.008V53.239c0-.557-.456-1.01-1.018-1.01s-1.017.453-1.017 1.01V65.59c0 2.22 1.82 4.028 4.059 4.028h46.878c2.238 0 4.059-1.807 4.059-4.028V7.944c0-2.22-1.82-4.027-4.059-4.027zm-36.165-.044c0-.645.528-1.17 1.178-1.17h23.096c.65 0 1.178.525 1.178 1.17V8.23c0 .644-.529 1.169-1.178 1.169h-5.738c-.563 0-1.018.452-1.018 1.01 0 2-1.641 3.629-3.658 3.629h-2.268c-2.017 0-3.658-1.628-3.658-3.63 0-.557-.456-1.01-1.018-1.01h-5.738c-.65 0-1.178-.524-1.178-1.168V3.873z" fill="#4D9B35"/><path d="M40.763 28.314h-5.381l-3.44-9.319c-.341-.926-1.696-.863-1.942.099l-3.694 14.432-3.567-10.295c-.285-.822-1.42-.925-1.85-.165l-2.967 5.248h-3.088c-.562 0-1.017.452-1.017 1.01 0 .557.455 1.01 1.017 1.01h3.684c.368 0 .707-.198.888-.516l2.147-3.799 3.937 11.364c.328.946 1.701.89 1.949-.08l3.724-14.546 2.552 6.914c.146.397.528.662.956.662h6.092c.563 0 1.018-.452 1.018-1.01 0-.557-.456-1.01-1.018-1.01zm0 16.651H14.834c-.562 0-1.017.452-1.017 1.01s.455 1.01 1.017 1.01h25.93c.561 0 1.017-.452 1.017-1.01s-.456-1.01-1.018-1.01zm0 8.896H14.834c-.562 0-1.017.453-1.017 1.01 0 .558.455 1.01 1.017 1.01h25.93c.561 0 1.017-.452 1.017-1.01 0-.557-.456-1.01-1.018-1.01z" fill="#4D9B35"/></svg>