<svg width="73" height="73" viewBox="0 0 73 73" xmlns="http://www.w3.org/2000/svg"><g fill="#4D9B35"><path d="M31.57 37.515a.586.586 0 0 0 .586-.585v-6.296a.586.586 0 0 0-.585-.585h-3.174a.585.585 0 0 0-.586.585v6.296c0 .323.262.585.586.585h3.174zm-2.588-6.296h2.003v5.126h-2.003v-5.126zm5.451 6.296h3.173a.586.586 0 0 0 .586-.585v-6.296a.586.586 0 0 0-.586-.585h-3.173a.585.585 0 0 0-.586.585v6.296c0 .323.262.585.586.585zm.585-6.296h2.003v5.126h-2.003v-5.126zM23.446 46.58a.585.585 0 0 0 .586-.585v-6.296a.585.585 0 0 0-.586-.585h-3.174a.585.585 0 0 0-.585.585v6.296c0 .323.262.585.585.585h3.174zm-2.589-6.295h2.004v5.124h-2.004v-5.124zm27.735 6.295h3.174a.585.585 0 0 0 .585-.585v-6.296a.585.585 0 0 0-.585-.585h-3.174a.585.585 0 0 0-.585.585v6.296c0 .323.262.585.585.585zm.585-6.295h2.004v5.124h-2.004v-5.124zm-8.709-2.77h3.174a.586.586 0 0 0 .585-.585v-6.296a.586.586 0 0 0-.585-.585h-3.174a.586.586 0 0 0-.585.585v6.296c0 .323.262.585.585.585zm.585-6.296h2.004v5.126h-2.004v-5.126zm-5.619-8.929a.585.585 0 0 0 1.17 0v-1.21h1.21a.585.585 0 0 0 0-1.171h-1.21v-1.21a.585.585 0 0 0-1.17 0v1.21h-1.21a.585.585 0 0 0 0 1.17h1.21v1.21z"/><path d="M55.414 33.079a.586.586 0 0 0 .585-.586v-2.107a.586.586 0 0 0-.585-.585h-3.551a.586.586 0 0 0 0 1.17h2.966v.937h-8.454v-.937h2.574a.585.585 0 1 0 0-1.17h-2.574v-2.745h.899a.585.585 0 0 0 .585-.585v-2.107a.585.585 0 0 0-.585-.586h-5.222v-7.153a.585.585 0 0 0-.585-.586H30.572a.585.585 0 0 0-.586.586v7.154h-5.221a.585.585 0 0 0-.586.585v2.107c0 .324.262.585.586.585h.898v2.745h-9.038a.586.586 0 0 0-.586.585v2.107c0 .323.262.586.586.586h.26v3.851a.585.585 0 0 0 1.17 0v-3.851h7.608v19.537h-7.608v-12.78a.585.585 0 1 0-1.17 0v12.78h-.26a.585.585 0 0 0-.586.585v2.213c0 .323.262.585.586.585h38.789a.586.586 0 0 0 .585-.585V53.2a.585.585 0 0 0-.585-.586h-.26V33.08h.26zm-30.064-8.13h9.097a.586.586 0 0 0 0-1.17h-3.29v-6.57h9.725v6.57h-3.12a.585.585 0 1 0 0 1.17h8.926v.937H25.35v-.936zm-8.14 6.022h8.453v.937H17.21v-.937zm9.624-3.915h18.37v25.56h-3.37v-9.26a.586.586 0 0 0-.586-.586H30.79a.586.586 0 0 0-.585.586v9.26h-3.371v-25.56zm4.541 25.56V43.94h4.059v8.674h-4.059zm5.23-8.675h4.058v8.674h-4.058v-8.674zm18.224 10.888h-37.62v-1.043h37.62v1.043zm-.846-2.214h-7.608V33.08h7.608v19.536z"/></g></svg>