<svg width="68" height="67" viewBox="0 0 68 67" fill="none" xmlns="http://www.w3.org/2000/svg"><g clip-path="url(#a)"><path d="M33.725 44.946c0 8.082 6.673 14.656 14.875 14.656s14.875-6.574 14.875-14.656c0-5.268-2.837-9.895-7.084-12.479V14.1c0-.364-.177-.687-.451-.89C41.859-.665 42.77.118 42.288.024 42.12-.01 43.898.002 9.058.002c-2.499 0-4.533 2.003-4.533 4.466v58.066C4.525 64.995 6.56 67 9.06 67h42.78c2.5 0 4.533-2.004 4.533-4.467 0-.616-.507-1.116-1.133-1.116s-1.134.5-1.134 1.116c0 1.232-1.016 2.234-2.266 2.234H9.059c-1.25 0-2.267-1.002-2.267-2.233V4.467c0-1.231 1.017-2.233 2.267-2.233h31.874v8.514c0 2.463 2.033 4.467 4.533 4.467h8.659v16.123a14.998 14.998 0 0 0-5.95-1.042v-7.962c0-1.847-1.525-3.35-3.4-3.35H16.16c-1.875 0-3.4 1.503-3.4 3.35v14.237c0 1.847 1.525 3.35 3.4 3.35h14.875c.626 0 1.133-.5 1.133-1.117s-.507-1.117-1.133-1.117h-5.1V30.57h10.2c.626 0 1.133-.5 1.133-1.117v-8.235h7.508c.625 0 1.133.501 1.133 1.117v8.197c-6.921 1.251-12.183 7.238-12.183 14.414zm11.741-31.963c-1.25 0-2.267-1.002-2.267-2.234V3.814l9.306 9.169h-7.039zm-29.307 8.235h7.508v7.119h-8.641v-6.002c0-.616.508-1.117 1.133-1.117zm7.508 16.47H16.16c-.625 0-1.133-.5-1.133-1.116V30.57h8.641v7.118zM35 28.336h-9.066v-7.118H35v7.119zm26.208 16.61c0 6.85-5.656 12.423-12.608 12.423-6.952 0-12.608-5.573-12.608-12.423S41.648 32.524 48.6 32.524c6.952 0 12.608 5.573 12.608 12.422zm-11.475 2.792v-.452c0-.49-.32-.92-.795-1.066l-1.352-.416c-1.427-.44-2.386-1.724-2.386-3.197v-.452c0-1.456.948-2.697 2.267-3.158v-.471c0-.617.507-1.117 1.133-1.117s1.133.5 1.133 1.117v.471C51.053 39.458 52 40.7 52 42.155c0 .617-.508 1.117-1.133 1.117-.626 0-1.134-.5-1.134-1.117 0-.616-.508-1.117-1.133-1.117s-1.133.501-1.133 1.117v.452c0 .49.32.92.795 1.066l1.352.416c1.427.44 2.386 1.724 2.386 3.197v.452c0 1.608-1.156 2.954-2.692 3.276v.353c0 .617-.507 1.117-1.133 1.117s-1.133-.5-1.133-1.117v-.653a3.348 3.348 0 0 1-1.842-2.976c0-.617.508-1.117 1.133-1.117.626 0 1.134.5 1.134 1.117 0 .616.508 1.117 1.133 1.117s1.133-.501 1.133-1.117zM12.76 46.063c0-.617.508-1.117 1.134-1.117h11.05c.625 0 1.133.5 1.133 1.117s-.508 1.117-1.134 1.117h-11.05c-.625 0-1.133-.5-1.133-1.117zm0 8.375c0-.617.508-1.117 1.134-1.117h13.883c.625 0 1.133.5 1.133 1.117 0 .616-.508 1.116-1.133 1.116H13.893c-.626 0-1.134-.5-1.134-1.116z" fill="#4D9B35"/></g><defs><clipPath id="a"><path fill="#fff" d="M0 0h68v67H0z"/></clipPath></defs></svg>