<svg width="73" height="73" viewBox="0 0 73 73" xmlns="http://www.w3.org/2000/svg"><g fill="#4D9B35"><path d="M47.71 50.604h-2.415a5.376 5.376 0 0 1-3.998-1.754c-.996-1.082-1.52-2.447-1.416-4.142l.42-6.614c.245.148.497.26.746.388.55.283 1.127.579 2.067.857.064 1.336.658 3.31 2.658 3.77.887.205 1.164-1.118.304-1.317-1.14-.263-1.476-1.37-1.573-2.142.944.155 1.701.156 1.71.156a.676.676 0 1 0 0-1.352h-.019c-3.06-.041-5.96-1.617-8.158-3.938a2.775 2.775 0 0 0-4.02 0c-3.975 4.198-8.044 3.909-8.178 3.938a.676.676 0 1 0 0 1.353c.021-.002.705.008 1.66-.144-.099.771-.438 1.868-1.571 2.129-.86.199-.583 1.522.304 1.318 1.994-.46 2.59-2.42 2.657-3.757a11.715 11.715 0 0 0 1.647-.624 57.17 57.17 0 0 0 1.305-.69c.496 7.776.414 6.54.427 6.682a5.43 5.43 0 0 1-5.416 5.883H24.7a.677.677 0 0 0 0 1.352h2.15c3.96 0 7.087-3.388 6.763-7.34l-.478-7.5a16.469 16.469 0 0 0 1.861-1.67c.27-.284.634-.44 1.029-.44.98 0 .895.59 2.978 2.19l-.472 7.42a6.803 6.803 0 0 0 1.77 5.15 6.803 6.803 0 0 0 4.993 2.19h2.415a.676.676 0 1 0 0-1.352z"/><path d="M59.06 49.046C57.65 38.5 56.316 28.54 49.77 24.202a5.281 5.281 0 0 0-2.929-.879c-2.695 0-6.864 2.047-7.098 4.875L39.593 30c-.493-.716-.863-1.241-.863-2.11V12.686a.676.676 0 1 0-1.352 0v15.206c0 .743.205 1.47.593 2.1a19.384 19.384 0 0 0 1.644 2.239c1.039 1.19 2.017 1.932 3.01 2.49.047.026.092.068.14.093.027.02.175.091.229.105.958.478 2.188.832 3.247.832.1 0 .171-.067.257-.106.072-.033.16-.033.216-.089a.676.676 0 0 0-.465-1.157c-.323-.005-.641-.074-.96-.132.619-.433 1.246-1.132 1.556-2.277a.677.677 0 0 0-1.306-.353c-.447 1.654-1.782 1.921-2.147 1.966-.979-.527-1.837-1.248-2.57-2.055l.269-3.237c.162-1.97 3.648-3.634 5.75-3.634.782 0 1.536.226 2.18.653 6.035 4 7.329 13.664 8.7 23.896l.022.167c.041.31-.05.61-.256.846a1.056 1.056 0 0 1-.806.366h-5.996a.676.676 0 1 0 0 1.353h5.996a2.423 2.423 0 0 0 2.402-2.745l-.022-.166zM23.124 25.33a3.931 3.931 0 0 1 2.181-.654c2.102 0 5.587 1.663 5.75 3.634l.26 3.135c-.234.263-.475.474-.714.702-.581.552-.329.42-1.39 1.109-.178.115-.353.26-.533.357-.27-.024-1.745-.24-2.215-1.977a.677.677 0 0 0-1.305.353c.31 1.147.939 1.846 1.56 2.28-.305.052-.608.124-.916.129a.676.676 0 0 0-.464 1.158c.042.041.11.037.163.066.107.06.19.13.32.128.988-.014 2.594-.458 3.432-.902 2.047-1.085 3.735-3.082 4.828-4.857a4 4 0 0 0 .592-2.098V12.685a.676.676 0 1 0-1.352 0v15.208c0 1.09-.61 1.665-.784 1.922l-.134-1.617c-.234-2.828-4.402-4.875-7.098-4.875a5.28 5.28 0 0 0-2.928.88c-6.949 4.605-8.106 15.993-9.314 25.01a2.424 2.424 0 0 0 2.402 2.744h5.36a.676.676 0 0 0 0-1.353h-5.36c-.313 0-.6-.13-.806-.366-.393-.448-.23-.937-.233-1.013 1.37-10.232 2.664-19.897 8.698-23.896z"/></g></svg>