<svg width="73" height="73" viewBox="0 0 73 73" xmlns="http://www.w3.org/2000/svg"><g fill="#4D9B35"><path d="M50.222 40.075a2.504 2.504 0 0 0 2.501 2.501 2.505 2.505 0 0 0 2.502-2.501 2.505 2.505 0 0 0-2.502-2.502 2.504 2.504 0 0 0-2.501 2.502zm3.833 0a1.333 1.333 0 0 1-2.663 0 1.333 1.333 0 0 1 2.663 0z"/><path d="M57.95 36.666a.585.585 0 1 0-.977.646c2.155 3.256-.058 7.806-4.28 7.806-4.385 0-6.665-5.423-3.496-8.593a5.058 5.058 0 0 1 6.346-.644.585.585 0 1 0 .646-.975c-4.106-2.718-9.64.234-9.64 5.185 0 3.262 2.486 5.859 5.56 6.18v3.283a6.199 6.199 0 0 1-6.192 6.192h-6.372a6.199 6.199 0 0 1-6.191-6.192v-2.161a2.183 2.183 0 0 0 1.595-2.1v-2.446h1.534a9.337 9.337 0 0 0 9.252-8.172l.75-6.026a2.18 2.18 0 0 0-1.319-2.28V23.1a3.515 3.515 0 0 0-3.51-3.51h-1.327v-.912c0-.917-.746-1.663-1.662-1.663h-.795a3.139 3.139 0 0 0-3.135 3.136v.047a3.14 3.14 0 0 0 3.135 3.135h.795c.916 0 1.662-.746 1.662-1.662v-.912h1.326c1.29 0 2.34 1.05 2.34 2.341v3.125a2.184 2.184 0 0 0-1.837 1.886l-.75 6.026a4.971 4.971 0 0 1-4.925 4.351H33.95a.585.585 0 1 0 0 1.17h2.533a6.142 6.142 0 0 0 6.087-5.376l.75-6.026a1.01 1.01 0 1 1 2.004.25l-.75 6.025a8.165 8.165 0 0 1-8.091 7.147h-2.12a.585.585 0 0 0-.584.585v3.031a1.011 1.011 0 0 1-2.02 0v-3.031a.585.585 0 0 0-.585-.585h-2.12a8.165 8.165 0 0 1-8.09-7.147l-.75-6.026a1.01 1.01 0 0 1 2.004-.25l.75 6.027a6.142 6.142 0 0 0 6.086 5.376h2.534a.585.585 0 0 0 0-1.17h-2.534a4.97 4.97 0 0 1-4.925-4.351l-.75-6.026a2.179 2.179 0 0 0-1.775-1.876V23.1c0-1.29 1.05-2.34 2.34-2.34h1.326v.91c0 .917.746 1.663 1.663 1.663h.794a3.14 3.14 0 0 0 3.136-3.135v-.047a3.139 3.139 0 0 0-3.136-3.136h-.794c-.917 0-1.663.746-1.663 1.663v.911h-1.325a3.515 3.515 0 0 0-3.51 3.51v3.246a2.184 2.184 0 0 0-1.382 2.305l.75 6.026a9.337 9.337 0 0 0 9.252 8.172h1.534v2.447c0 1 .676 1.843 1.595 2.1v2.16c0 4.06 3.302 7.362 7.361 7.362h6.372c4.059 0 7.361-3.303 7.361-7.362v-3.272a6.167 6.167 0 0 0 3.88-1.797 6.232 6.232 0 0 0 .791-7.819zM39.16 21.67a.494.494 0 0 1-.493.493h-.795a1.968 1.968 0 0 1-1.965-1.965v-.047c0-1.084.882-1.966 1.965-1.966h.795c.271 0 .492.222.492.493v2.992zm-12.72-2.992c0-.271.222-.492.493-.492h.795c1.083 0 1.965.881 1.965 1.965v.047a1.968 1.968 0 0 1-1.965 1.965h-.795a.493.493 0 0 1-.492-.492v-2.993z"/></g></svg>