<svg width="70" height="70" viewBox="0 0 70 70" fill="none" xmlns="http://www.w3.org/2000/svg"><g clip-path="url(#a)" fill="#4D9B35"><path d="M50.043 44.57a1.368 1.368 0 1 0 0-2.735 1.368 1.368 0 0 0 0 2.735z"/><path d="M13.389 43.772a39.91 39.91 0 0 0 10.634 19.094l.044.044v5.723c0 .755.612 1.367 1.367 1.367h24.61c.755 0 1.367-.612 1.367-1.367v-5.88a33.925 33.925 0 0 0 5.468-18.471v-10.65a5.475 5.475 0 0 0-5.468-5.468 5.435 5.435 0 0 0-3.043.927 5.477 5.477 0 0 0-5.16-3.661 5.435 5.435 0 0 0-3.043.927 5.477 5.477 0 0 0-5.16-3.662c-.977 0-1.913.256-2.735.732v-12.49A5.467 5.467 0 0 0 26.8 5.47a5.475 5.475 0 0 0-5.469 5.468v19.685l-3.736 2.491a10.09 10.09 0 0 0-4.207 10.659zm5.724-8.384 2.22-1.48v9.295a1.367 1.367 0 1 0 2.734 0V10.937a2.734 2.734 0 1 1 5.469 0v26.797a1.367 1.367 0 1 0 2.734 0v-9.57a2.734 2.734 0 1 1 5.469 0v9.57a1.367 1.367 0 1 0 2.734 0v-6.836a2.738 2.738 0 0 1 2.734-2.734 2.738 2.738 0 0 1 2.735 2.734v6.836a1.367 1.367 0 1 0 2.734 0v-4.101a2.738 2.738 0 0 1 2.734-2.735 2.738 2.738 0 0 1 2.735 2.735v10.649a31.19 31.19 0 0 1-5.24 17.303 1.37 1.37 0 0 0-.229.759v4.922H26.801v-4.922c0-.363-.144-.71-.4-.967-.29-.33-3.707-3.381-6.639-8.647a37.266 37.266 0 0 1-3.712-9.584 7.346 7.346 0 0 1 3.063-7.758z"/><path d="M44.735 60.447a1.367 1.367 0 0 0 1.896-.378 28.212 28.212 0 0 0 4.408-11.188 1.367 1.367 0 0 0-2.7-.44 25.488 25.488 0 0 1-3.983 10.11c-.42.628-.25 1.477.379 1.896zM17.23 12.305c.756 0 1.368-.612 1.368-1.367 0-4.524 3.68-8.204 8.203-8.204 4.524 0 8.203 3.68 8.203 8.204a1.367 1.367 0 1 0 2.735 0C37.739 4.905 32.832 0 26.8 0c-6.03 0-10.936 4.906-10.936 10.938 0 .755.612 1.367 1.367 1.367z"/></g><defs><clipPath id="a"><path fill="#fff" d="M0 0h70v70H0z"/></clipPath></defs></svg>